<?xml version="1.0" encoding="utf-8" standalone="no"?>
<!DOCTYPE svg PUBLIC "-//W3C//DTD SVG 1.1//EN"
  "http://www.w3.org/Graphics/SVG/1.1/DTD/svg11.dtd">
<!-- Created with matplotlib (https://matplotlib.org/) -->
<svg height="144pt" version="1.1" viewBox="0 0 1296 144" width="1296pt" xmlns="http://www.w3.org/2000/svg" xmlns:xlink="http://www.w3.org/1999/xlink">
 <metadata>
  <rdf:RDF xmlns:cc="http://creativecommons.org/ns#" xmlns:dc="http://purl.org/dc/elements/1.1/" xmlns:rdf="http://www.w3.org/1999/02/22-rdf-syntax-ns#">
   <cc:Work>
    <dc:type rdf:resource="http://purl.org/dc/dcmitype/StillImage"/>
    <dc:date>2021-03-22T16:42:53.978620</dc:date>
    <dc:format>image/svg+xml</dc:format>
    <dc:creator>
     <cc:Agent>
      <dc:title>Matplotlib v3.3.3, https://matplotlib.org/</dc:title>
     </cc:Agent>
    </dc:creator>
   </cc:Work>
  </rdf:RDF>
 </metadata>
 <defs>
  <style type="text/css">*{stroke-linecap:butt;stroke-linejoin:round;}</style>
 </defs>
 <g id="figure_1">
  <g id="patch_1">
   <path d="M 0 144 
L 1296 144 
L 1296 0 
L 0 0 
z
" style="fill:none;"/>
  </g>
  <g id="axes_1">
   <g id="patch_2">
    <path d="M 28.55 113.2 
L 1285.2 113.2 
L 1285.2 10.8 
L 28.55 10.8 
z
" style="fill:#dec49d;"/>
   </g>
   <g id="PathCollection_1">
    <defs>
     <path d="M 0 3.535534 
C 0.937635 3.535534 1.836992 3.163008 2.5 2.5 
C 3.163008 1.836992 3.535534 0.937635 3.535534 0 
C 3.535534 -0.937635 3.163008 -1.836992 2.5 -2.5 
C 1.836992 -3.163008 0.937635 -3.535534 0 -3.535534 
C -0.937635 -3.535534 -1.836992 -3.163008 -2.5 -2.5 
C -3.163008 -1.836992 -3.535534 -0.937635 -3.535534 0 
C -3.535534 0.937635 -3.163008 1.836992 -2.5 2.5 
C -1.836992 3.163008 -0.937635 3.535534 0 3.535534 
z
" id="mefd2781bbd" style="stroke:#000000;"/>
    </defs>
    <g clip-path="url(#p2b2d02026a)">
     <use style="stroke:#000000;" x="281.96605" xlink:href="#mefd2781bbd" y="60.264407"/>
    </g>
   </g>
   <g id="PathCollection_2">
    <g clip-path="url(#p2b2d02026a)">
     <use style="stroke:#000000;" x="448.651019" xlink:href="#mefd2781bbd" y="60.264407"/>
    </g>
   </g>
   <g id="PathCollection_3">
    <g clip-path="url(#p2b2d02026a)">
     <use style="stroke:#000000;" x="597.150291" xlink:href="#mefd2781bbd" y="60.264407"/>
    </g>
   </g>
   <g id="PathCollection_4">
    <g clip-path="url(#p2b2d02026a)">
     <use style="stroke:#000000;" x="729.447966" xlink:href="#mefd2781bbd" y="60.264407"/>
    </g>
   </g>
   <g id="PathCollection_5">
    <g clip-path="url(#p2b2d02026a)">
     <use style="stroke:#000000;" x="901.329851" xlink:href="#mefd2781bbd" y="83.261017"/>
    </g>
   </g>
   <g id="PathCollection_6">
    <g clip-path="url(#p2b2d02026a)">
     <use style="stroke:#000000;" x="901.329851" xlink:href="#mefd2781bbd" y="37.267797"/>
    </g>
   </g>
   <g id="PathCollection_7">
    <g clip-path="url(#p2b2d02026a)">
     <use style="stroke:#000000;" x="1045.864489" xlink:href="#mefd2781bbd" y="60.264407"/>
    </g>
   </g>
   <g id="PathCollection_8">
    <g clip-path="url(#p2b2d02026a)">
     <use style="stroke:#000000;" x="1129.20646" xlink:href="#mefd2781bbd" y="60.264407"/>
    </g>
   </g>
   <g id="PathCollection_9">
    <g clip-path="url(#p2b2d02026a)">
     <use style="stroke:#000000;" x="1203.455639" xlink:href="#mefd2781bbd" y="60.264407"/>
    </g>
   </g>
   <g id="matplotlib.axis_1">
    <g id="xtick_1">
     <g id="line2d_1">
      <defs>
       <path d="M 0 0 
L 0 3.5 
" id="me8235a9819" style="stroke:#000000;stroke-width:0.8;"/>
      </defs>
      <g>
       <use style="stroke:#000000;stroke-width:0.8;" x="281.96605" xlink:href="#me8235a9819" y="113.2"/>
      </g>
     </g>
     <g id="text_1">
      <!-- III -->
      <g transform="translate(274.711441 130.077969)scale(0.13 -0.13)">
       <defs>
        <path d="M 9.1875 72.90625 
L 27.984375 72.90625 
L 27.984375 0 
L 9.1875 0 
z
" id="DejaVuSans-Bold-73"/>
       </defs>
       <use xlink:href="#DejaVuSans-Bold-73"/>
       <use x="37.207031" xlink:href="#DejaVuSans-Bold-73"/>
       <use x="74.414062" xlink:href="#DejaVuSans-Bold-73"/>
      </g>
     </g>
    </g>
    <g id="xtick_2">
     <g id="line2d_2">
      <g>
       <use style="stroke:#000000;stroke-width:0.8;" x="448.651019" xlink:href="#me8235a9819" y="113.2"/>
      </g>
     </g>
     <g id="text_2">
      <!-- V -->
      <g transform="translate(443.620628 130.077969)scale(0.13 -0.13)">
       <defs>
        <path d="M 0.484375 72.90625 
L 19.390625 72.90625 
L 38.71875 19.09375 
L 58.015625 72.90625 
L 76.90625 72.90625 
L 49.90625 0 
L 27.484375 0 
z
" id="DejaVuSans-Bold-86"/>
       </defs>
       <use xlink:href="#DejaVuSans-Bold-86"/>
      </g>
     </g>
    </g>
    <g id="xtick_3">
     <g id="line2d_3">
      <g>
       <use style="stroke:#000000;stroke-width:0.8;" x="597.150291" xlink:href="#me8235a9819" y="113.2"/>
      </g>
     </g>
     <g id="text_3">
      <!-- VII -->
      <g transform="translate(587.283494 130.077969)scale(0.13 -0.13)">
       <use xlink:href="#DejaVuSans-Bold-86"/>
       <use x="77.392578" xlink:href="#DejaVuSans-Bold-73"/>
       <use x="114.599609" xlink:href="#DejaVuSans-Bold-73"/>
      </g>
     </g>
    </g>
    <g id="xtick_4">
     <g id="line2d_4">
      <g>
       <use style="stroke:#000000;stroke-width:0.8;" x="729.447966" xlink:href="#me8235a9819" y="113.2"/>
      </g>
     </g>
     <g id="text_4">
      <!-- IX -->
      <g transform="translate(722.018669 130.077969)scale(0.13 -0.13)">
       <defs>
        <path d="M 49.8125 37.203125 
L 75.09375 0 
L 55.515625 0 
L 38.484375 24.90625 
L 21.578125 0 
L 1.90625 0 
L 27.203125 37.203125 
L 2.875 72.90625 
L 22.515625 72.90625 
L 38.484375 49.421875 
L 54.390625 72.90625 
L 74.125 72.90625 
z
" id="DejaVuSans-Bold-88"/>
       </defs>
       <use xlink:href="#DejaVuSans-Bold-73"/>
       <use x="37.207031" xlink:href="#DejaVuSans-Bold-88"/>
      </g>
     </g>
    </g>
    <g id="xtick_5">
     <g id="line2d_5">
      <g>
       <use style="stroke:#000000;stroke-width:0.8;" x="901.329851" xlink:href="#me8235a9819" y="113.2"/>
      </g>
     </g>
     <g id="text_5">
      <!-- XII -->
      <g transform="translate(891.482351 130.077969)scale(0.13 -0.13)">
       <use xlink:href="#DejaVuSans-Bold-88"/>
       <use x="77.099609" xlink:href="#DejaVuSans-Bold-73"/>
       <use x="114.306641" xlink:href="#DejaVuSans-Bold-73"/>
      </g>
     </g>
    </g>
    <g id="xtick_6">
     <g id="line2d_6">
      <g>
       <use style="stroke:#000000;stroke-width:0.8;" x="1045.864489" xlink:href="#me8235a9819" y="113.2"/>
      </g>
     </g>
     <g id="text_6">
      <!-- XV -->
      <g transform="translate(1035.823005 130.077969)scale(0.13 -0.13)">
       <use xlink:href="#DejaVuSans-Bold-88"/>
       <use x="77.099609" xlink:href="#DejaVuSans-Bold-86"/>
      </g>
     </g>
    </g>
    <g id="xtick_7">
     <g id="line2d_7">
      <g>
       <use style="stroke:#000000;stroke-width:0.8;" x="1129.20646" xlink:href="#me8235a9819" y="113.2"/>
      </g>
     </g>
     <g id="text_7">
      <!-- XVII -->
      <g transform="translate(1114.32857 130.077969)scale(0.13 -0.13)">
       <use xlink:href="#DejaVuSans-Bold-88"/>
       <use x="77.099609" xlink:href="#DejaVuSans-Bold-86"/>
       <use x="154.492188" xlink:href="#DejaVuSans-Bold-73"/>
       <use x="191.699219" xlink:href="#DejaVuSans-Bold-73"/>
      </g>
     </g>
    </g>
    <g id="xtick_8">
     <g id="line2d_8">
      <g>
       <use style="stroke:#000000;stroke-width:0.8;" x="1203.455639" xlink:href="#me8235a9819" y="113.2"/>
      </g>
     </g>
     <g id="text_8">
      <!-- XIX -->
      <g transform="translate(1191.015249 130.077969)scale(0.13 -0.13)">
       <use xlink:href="#DejaVuSans-Bold-88"/>
       <use x="77.099609" xlink:href="#DejaVuSans-Bold-73"/>
       <use x="114.306641" xlink:href="#DejaVuSans-Bold-88"/>
      </g>
     </g>
    </g>
   </g>
   <g id="matplotlib.axis_2">
    <g id="ytick_1">
     <g id="line2d_9">
      <defs>
       <path d="M 0 0 
L -3.5 0 
" id="m88fc4c46c1" style="stroke:#000000;stroke-width:0.8;"/>
      </defs>
      <g>
       <use style="stroke:#000000;stroke-width:0.8;" x="28.55" xlink:href="#m88fc4c46c1" y="106.257627"/>
      </g>
     </g>
     <g id="text_9">
      <!-- E -->
      <g transform="translate(12.669375 111.196611)scale(0.13 -0.13)">
       <defs>
        <path d="M 9.1875 72.90625 
L 59.90625 72.90625 
L 59.90625 58.6875 
L 27.984375 58.6875 
L 27.984375 45.125 
L 58.015625 45.125 
L 58.015625 30.90625 
L 27.984375 30.90625 
L 27.984375 14.203125 
L 60.984375 14.203125 
L 60.984375 0 
L 9.1875 0 
z
" id="DejaVuSans-Bold-69"/>
       </defs>
       <use xlink:href="#DejaVuSans-Bold-69"/>
      </g>
     </g>
    </g>
    <g id="ytick_2">
     <g id="line2d_10">
      <g>
       <use style="stroke:#000000;stroke-width:0.8;" x="28.55" xlink:href="#m88fc4c46c1" y="88.901695"/>
      </g>
     </g>
     <g id="text_10">
      <!-- A -->
      <g transform="translate(11.489219 93.840679)scale(0.13 -0.13)">
       <defs>
        <path d="M 53.421875 13.28125 
L 24.03125 13.28125 
L 19.390625 0 
L 0.484375 0 
L 27.484375 72.90625 
L 49.90625 72.90625 
L 76.90625 0 
L 58.015625 0 
z
M 28.71875 26.8125 
L 48.6875 26.8125 
L 38.71875 55.8125 
z
" id="DejaVuSans-Bold-65"/>
       </defs>
       <use xlink:href="#DejaVuSans-Bold-65"/>
      </g>
     </g>
    </g>
    <g id="ytick_3">
     <g id="line2d_11">
      <g>
       <use style="stroke:#000000;stroke-width:0.8;" x="28.55" xlink:href="#m88fc4c46c1" y="71.545763"/>
      </g>
     </g>
     <g id="text_11">
      <!-- D -->
      <g transform="translate(10.757969 76.484747)scale(0.13 -0.13)">
       <defs>
        <path d="M 27.984375 58.6875 
L 27.984375 14.203125 
L 34.71875 14.203125 
Q 46.234375 14.203125 52.3125 19.921875 
Q 58.40625 25.640625 58.40625 36.53125 
Q 58.40625 47.359375 52.34375 53.015625 
Q 46.296875 58.6875 34.71875 58.6875 
z
M 9.1875 72.90625 
L 29 72.90625 
Q 45.609375 72.90625 53.734375 70.53125 
Q 61.859375 68.171875 67.671875 62.5 
Q 72.796875 57.5625 75.28125 51.109375 
Q 77.78125 44.671875 77.78125 36.53125 
Q 77.78125 28.265625 75.28125 21.796875 
Q 72.796875 15.328125 67.671875 10.40625 
Q 61.8125 4.734375 53.609375 2.359375 
Q 45.40625 0 29 0 
L 9.1875 0 
z
" id="DejaVuSans-Bold-68"/>
       </defs>
       <use xlink:href="#DejaVuSans-Bold-68"/>
      </g>
     </g>
    </g>
    <g id="ytick_4">
     <g id="line2d_12">
      <g>
       <use style="stroke:#000000;stroke-width:0.8;" x="28.55" xlink:href="#m88fc4c46c1" y="54.189831"/>
      </g>
     </g>
     <g id="text_12">
      <!-- G -->
      <g transform="translate(10.879844 59.128815)scale(0.13 -0.13)">
       <defs>
        <path d="M 74.703125 5.421875 
Q 67.671875 2 60.109375 0.28125 
Q 52.546875 -1.421875 44.484375 -1.421875 
Q 26.265625 -1.421875 15.625 8.765625 
Q 4.984375 18.953125 4.984375 36.375 
Q 4.984375 54 15.8125 64.109375 
Q 26.65625 74.21875 45.515625 74.21875 
Q 52.78125 74.21875 59.4375 72.84375 
Q 66.109375 71.484375 72.015625 68.796875 
L 72.015625 53.71875 
Q 65.921875 57.171875 59.890625 58.875 
Q 53.859375 60.59375 47.796875 60.59375 
Q 36.578125 60.59375 30.5 54.3125 
Q 24.421875 48.046875 24.421875 36.375 
Q 24.421875 24.8125 30.28125 18.5 
Q 36.140625 12.203125 46.921875 12.203125 
Q 49.859375 12.203125 52.375 12.5625 
Q 54.890625 12.9375 56.890625 13.71875 
L 56.890625 27.875 
L 45.40625 27.875 
L 45.40625 40.484375 
L 74.703125 40.484375 
z
" id="DejaVuSans-Bold-71"/>
       </defs>
       <use xlink:href="#DejaVuSans-Bold-71"/>
      </g>
     </g>
    </g>
    <g id="ytick_5">
     <g id="line2d_13">
      <g>
       <use style="stroke:#000000;stroke-width:0.8;" x="28.55" xlink:href="#m88fc4c46c1" y="36.833898"/>
      </g>
     </g>
     <g id="text_13">
      <!-- B -->
      <g transform="translate(11.641563 41.772883)scale(0.13 -0.13)">
       <defs>
        <path d="M 38.375 44.671875 
Q 42.828125 44.671875 45.109375 46.625 
Q 47.40625 48.578125 47.40625 52.390625 
Q 47.40625 56.15625 45.109375 58.125 
Q 42.828125 60.109375 38.375 60.109375 
L 27.984375 60.109375 
L 27.984375 44.671875 
z
M 39.015625 12.796875 
Q 44.671875 12.796875 47.53125 15.1875 
Q 50.390625 17.578125 50.390625 22.40625 
Q 50.390625 27.15625 47.5625 29.515625 
Q 44.734375 31.890625 39.015625 31.890625 
L 27.984375 31.890625 
L 27.984375 12.796875 
z
M 56.5 39.015625 
Q 62.546875 37.25 65.859375 32.515625 
Q 69.1875 27.78125 69.1875 20.90625 
Q 69.1875 10.359375 62.0625 5.171875 
Q 54.9375 0 40.375 0 
L 9.1875 0 
L 9.1875 72.90625 
L 37.40625 72.90625 
Q 52.59375 72.90625 59.40625 68.3125 
Q 66.21875 63.71875 66.21875 53.609375 
Q 66.21875 48.296875 63.71875 44.5625 
Q 61.234375 40.828125 56.5 39.015625 
z
" id="DejaVuSans-Bold-66"/>
       </defs>
       <use xlink:href="#DejaVuSans-Bold-66"/>
      </g>
     </g>
    </g>
    <g id="ytick_6">
     <g id="line2d_14">
      <g>
       <use style="stroke:#000000;stroke-width:0.8;" x="28.55" xlink:href="#m88fc4c46c1" y="19.477966"/>
      </g>
     </g>
     <g id="text_14">
      <!-- E -->
      <g transform="translate(12.669375 24.41695)scale(0.13 -0.13)">
       <use xlink:href="#DejaVuSans-Bold-69"/>
      </g>
     </g>
    </g>
   </g>
   <g id="LineCollection_1">
    <path clip-path="url(#p2b2d02026a)" d="M 45.353807 106.257627 
L 1297 106.257627 
" style="fill:none;stroke:#6e6e6e;stroke-width:0.66;"/>
   </g>
   <g id="LineCollection_2">
    <path clip-path="url(#p2b2d02026a)" d="M 45.353807 88.901695 
L 1297 88.901695 
" style="fill:none;stroke:#6e6e6e;stroke-width:0.66;"/>
   </g>
   <g id="LineCollection_3">
    <path clip-path="url(#p2b2d02026a)" d="M 45.353807 71.545763 
L 1297 71.545763 
" style="fill:none;stroke:#6e6e6e;stroke-width:0.66;"/>
   </g>
   <g id="LineCollection_4">
    <path clip-path="url(#p2b2d02026a)" d="M 45.353807 54.189831 
L 1297 54.189831 
" style="fill:none;stroke:#6e6e6e;stroke-width:0.66;"/>
   </g>
   <g id="LineCollection_5">
    <path clip-path="url(#p2b2d02026a)" d="M 45.353807 36.833898 
L 1297 36.833898 
" style="fill:none;stroke:#6e6e6e;stroke-width:0.66;"/>
   </g>
   <g id="LineCollection_6">
    <path clip-path="url(#p2b2d02026a)" d="M 45.353807 19.477966 
L 1297 19.477966 
" style="fill:none;stroke:#6e6e6e;stroke-width:0.66;"/>
   </g>
   <g id="LineCollection_7">
    <path clip-path="url(#p2b2d02026a)" d="M 45.353807 110.59661 
L 45.353807 14.271186 
" style="fill:none;stroke:#000000;stroke-width:1.5;"/>
   </g>
   <g id="LineCollection_8">
    <path clip-path="url(#p2b2d02026a)" d="M 144.382808 110.59661 
L 144.382808 14.271186 
" style="fill:none;stroke:#000000;stroke-width:1.5;"/>
   </g>
   <g id="LineCollection_9">
    <path clip-path="url(#p2b2d02026a)" d="M 237.85369 110.59661 
L 237.85369 14.271186 
" style="fill:none;stroke:#000000;stroke-width:1.5;"/>
   </g>
   <g id="LineCollection_10">
    <path clip-path="url(#p2b2d02026a)" d="M 326.07841 110.59661 
L 326.07841 14.271186 
" style="fill:none;stroke:#000000;stroke-width:1.5;"/>
   </g>
   <g id="LineCollection_11">
    <path clip-path="url(#p2b2d02026a)" d="M 409.351414 110.59661 
L 409.351414 14.271186 
" style="fill:none;stroke:#000000;stroke-width:1.5;"/>
   </g>
   <g id="LineCollection_12">
    <path clip-path="url(#p2b2d02026a)" d="M 487.950623 110.59661 
L 487.950623 14.271186 
" style="fill:none;stroke:#000000;stroke-width:1.5;"/>
   </g>
   <g id="LineCollection_13">
    <path clip-path="url(#p2b2d02026a)" d="M 562.138359 110.59661 
L 562.138359 14.271186 
" style="fill:none;stroke:#000000;stroke-width:1.5;"/>
   </g>
   <g id="LineCollection_14">
    <path clip-path="url(#p2b2d02026a)" d="M 632.162222 110.59661 
L 632.162222 14.271186 
" style="fill:none;stroke:#000000;stroke-width:1.5;"/>
   </g>
   <g id="LineCollection_15">
    <path clip-path="url(#p2b2d02026a)" d="M 698.255914 110.59661 
L 698.255914 14.271186 
" style="fill:none;stroke:#000000;stroke-width:1.5;"/>
   </g>
   <g id="LineCollection_16">
    <path clip-path="url(#p2b2d02026a)" d="M 760.640019 110.59661 
L 760.640019 14.271186 
" style="fill:none;stroke:#000000;stroke-width:1.5;"/>
   </g>
   <g id="LineCollection_17">
    <path clip-path="url(#p2b2d02026a)" d="M 819.522744 110.59661 
L 819.522744 14.271186 
" style="fill:none;stroke:#000000;stroke-width:1.5;"/>
   </g>
   <g id="LineCollection_18">
    <path clip-path="url(#p2b2d02026a)" d="M 875.100606 110.59661 
L 875.100606 14.271186 
" style="fill:none;stroke:#000000;stroke-width:1.5;"/>
   </g>
   <g id="LineCollection_19">
    <path clip-path="url(#p2b2d02026a)" d="M 927.559096 110.59661 
L 927.559096 14.271186 
" style="fill:none;stroke:#000000;stroke-width:1.5;"/>
   </g>
   <g id="LineCollection_20">
    <path clip-path="url(#p2b2d02026a)" d="M 977.073292 110.59661 
L 977.073292 14.271186 
" style="fill:none;stroke:#000000;stroke-width:1.5;"/>
   </g>
   <g id="LineCollection_21">
    <path clip-path="url(#p2b2d02026a)" d="M 1023.808445 110.59661 
L 1023.808445 14.271186 
" style="fill:none;stroke:#000000;stroke-width:1.5;"/>
   </g>
   <g id="LineCollection_22">
    <path clip-path="url(#p2b2d02026a)" d="M 1067.920533 110.59661 
L 1067.920533 14.271186 
" style="fill:none;stroke:#000000;stroke-width:1.5;"/>
   </g>
   <g id="LineCollection_23">
    <path clip-path="url(#p2b2d02026a)" d="M 1109.556779 110.59661 
L 1109.556779 14.271186 
" style="fill:none;stroke:#000000;stroke-width:1.5;"/>
   </g>
   <g id="LineCollection_24">
    <path clip-path="url(#p2b2d02026a)" d="M 1148.856142 110.59661 
L 1148.856142 14.271186 
" style="fill:none;stroke:#000000;stroke-width:1.5;"/>
   </g>
   <g id="LineCollection_25">
    <path clip-path="url(#p2b2d02026a)" d="M 1185.949781 110.59661 
L 1185.949781 14.271186 
" style="fill:none;stroke:#000000;stroke-width:1.5;"/>
   </g>
   <g id="LineCollection_26">
    <path clip-path="url(#p2b2d02026a)" d="M 1220.961497 110.59661 
L 1220.961497 14.271186 
" style="fill:none;stroke:#000000;stroke-width:1.5;"/>
   </g>
   <g id="LineCollection_27">
    <path clip-path="url(#p2b2d02026a)" d="M 1254.008139 110.59661 
L 1254.008139 14.271186 
" style="fill:none;stroke:#000000;stroke-width:1.5;"/>
   </g>
   <g id="LineCollection_28">
    <path clip-path="url(#p2b2d02026a)" d="M 1285.2 110.59661 
L 1285.2 14.271186 
" style="fill:none;stroke:#000000;stroke-width:1.5;"/>
   </g>
   <g id="patch_3">
    <path d="M 28.55 113.2 
L 28.55 10.8 
" style="fill:none;stroke:#000000;stroke-linecap:square;stroke-linejoin:miter;stroke-width:0.8;"/>
   </g>
   <g id="patch_4">
    <path d="M 28.55 113.2 
L 1285.2 113.2 
" style="fill:none;stroke:#000000;stroke-linecap:square;stroke-linejoin:miter;stroke-width:0.8;"/>
   </g>
   <g id="PathCollection_10">
    <defs>
     <path d="M 0 6 
C 1.591219 6 3.117479 5.367802 4.242641 4.242641 
C 5.367802 3.117479 6 1.591219 6 -0 
C 6 -1.591219 5.367802 -3.117479 4.242641 -4.242641 
C 3.117479 -5.367802 1.591219 -6 0 -6 
C -1.591219 -6 -3.117479 -5.367802 -4.242641 -4.242641 
C -5.367802 -3.117479 -6 -1.591219 -6 0 
C -6 1.591219 -5.367802 3.117479 -4.242641 4.242641 
C -3.117479 5.367802 -1.591219 6 0 6 
z
" id="C0_0_5d70943636"/>
    </defs>
    <g clip-path="url(#p2b2d02026a)">
     <use style="fill:#aedea7;stroke:#000000;stroke-width:1.3;" x="36.951903" xlink:href="#C0_0_5d70943636" y="106.257627"/>
    </g>
    <g clip-path="url(#p2b2d02026a)">
     <use style="fill:#dbf1d6;stroke:#000000;stroke-width:1.3;" x="84.365928" xlink:href="#C0_0_5d70943636" y="106.257627"/>
    </g>
    <g clip-path="url(#p2b2d02026a)">
     <use style="fill:#f7fcf5;stroke:#000000;stroke-width:1.3;" x="357.212533" xlink:href="#C0_0_5d70943636" y="106.257627"/>
    </g>
    <g clip-path="url(#p2b2d02026a)">
     <use style="fill:#00441b;stroke:#000000;stroke-width:1.3;" x="438.148639" xlink:href="#C0_0_5d70943636" y="106.257627"/>
    </g>
    <g clip-path="url(#p2b2d02026a)">
     <use style="fill:#0b7734;stroke:#000000;stroke-width:1.3;" x="586.647912" xlink:href="#C0_0_5d70943636" y="106.257627"/>
    </g>
    <g clip-path="url(#p2b2d02026a)">
     <use style="fill:#37a055;stroke:#000000;stroke-width:1.3;" x="654.706689" xlink:href="#C0_0_5d70943636" y="106.257627"/>
    </g>
    <g clip-path="url(#p2b2d02026a)">
     <use style="fill:#75c477;stroke:#000000;stroke-width:1.3;" x="779.579002" xlink:href="#C0_0_5d70943636" y="106.257627"/>
    </g>
    <g clip-path="url(#p2b2d02026a)">
     <use style="fill:#aedea7;stroke:#000000;stroke-width:1.3;" x="890.827472" xlink:href="#C0_0_5d70943636" y="106.257627"/>
    </g>
    <g clip-path="url(#p2b2d02026a)">
     <use style="fill:#dbf1d6;stroke:#000000;stroke-width:1.3;" x="941.813815" xlink:href="#C0_0_5d70943636" y="106.257627"/>
    </g>
    <g clip-path="url(#p2b2d02026a)">
     <use style="fill:#f7fcf5;stroke:#000000;stroke-width:1.3;" x="1078.236277" xlink:href="#C0_0_5d70943636" y="106.257627"/>
    </g>
    <g clip-path="url(#p2b2d02026a)">
     <use style="fill:#00441b;stroke:#000000;stroke-width:1.3;" x="1118.704081" xlink:href="#C0_0_5d70943636" y="106.257627"/>
    </g>
    <g clip-path="url(#p2b2d02026a)">
     <use style="fill:#0b7734;stroke:#000000;stroke-width:1.3;" x="1192.95326" xlink:href="#C0_0_5d70943636" y="106.257627"/>
    </g>
    <g clip-path="url(#p2b2d02026a)">
     <use style="fill:#37a055;stroke:#000000;stroke-width:1.3;" x="1226.982439" xlink:href="#C0_0_5d70943636" y="106.257627"/>
    </g>
    <g clip-path="url(#p2b2d02026a)">
     <use style="fill:#00441b;stroke:#000000;stroke-width:1.3;" x="36.951903" xlink:href="#C0_0_5d70943636" y="88.901695"/>
    </g>
    <g clip-path="url(#p2b2d02026a)">
     <use style="fill:#0b7734;stroke:#000000;stroke-width:1.3;" x="180.61587" xlink:href="#C0_0_5d70943636" y="88.901695"/>
    </g>
    <g clip-path="url(#p2b2d02026a)">
     <use style="fill:#37a055;stroke:#000000;stroke-width:1.3;" x="271.463671" xlink:href="#C0_0_5d70943636" y="88.901695"/>
    </g>
    <g clip-path="url(#p2b2d02026a)">
     <use style="fill:#75c477;stroke:#000000;stroke-width:1.3;" x="438.148639" xlink:href="#C0_0_5d70943636" y="88.901695"/>
    </g>
    <g clip-path="url(#p2b2d02026a)">
     <use style="fill:#aedea7;stroke:#000000;stroke-width:1.3;" x="586.647912" xlink:href="#C0_0_5d70943636" y="88.901695"/>
    </g>
    <g clip-path="url(#p2b2d02026a)">
     <use style="fill:#dbf1d6;stroke:#000000;stroke-width:1.3;" x="654.706689" xlink:href="#C0_0_5d70943636" y="88.901695"/>
    </g>
    <g clip-path="url(#p2b2d02026a)">
     <use style="fill:#f7fcf5;stroke:#000000;stroke-width:1.3;" x="836.809296" xlink:href="#C0_0_5d70943636" y="88.901695"/>
    </g>
    <g clip-path="url(#p2b2d02026a)">
     <use style="fill:#00441b;stroke:#000000;stroke-width:1.3;" x="890.827472" xlink:href="#C0_0_5d70943636" y="88.901695"/>
    </g>
    <g clip-path="url(#p2b2d02026a)">
     <use style="fill:#0b7734;stroke:#000000;stroke-width:1.3;" x="989.938489" xlink:href="#C0_0_5d70943636" y="88.901695"/>
    </g>
    <g clip-path="url(#p2b2d02026a)">
     <use style="fill:#37a055;stroke:#000000;stroke-width:1.3;" x="1035.36211" xlink:href="#C0_0_5d70943636" y="88.901695"/>
    </g>
    <g clip-path="url(#p2b2d02026a)">
     <use style="fill:#75c477;stroke:#000000;stroke-width:1.3;" x="1118.704081" xlink:href="#C0_0_5d70943636" y="88.901695"/>
    </g>
    <g clip-path="url(#p2b2d02026a)">
     <use style="fill:#aedea7;stroke:#000000;stroke-width:1.3;" x="1192.95326" xlink:href="#C0_0_5d70943636" y="88.901695"/>
    </g>
    <g clip-path="url(#p2b2d02026a)">
     <use style="fill:#dbf1d6;stroke:#000000;stroke-width:1.3;" x="1226.982439" xlink:href="#C0_0_5d70943636" y="88.901695"/>
    </g>
    <g clip-path="url(#p2b2d02026a)">
     <use style="fill:#75c477;stroke:#000000;stroke-width:1.3;" x="36.951903" xlink:href="#C0_0_5d70943636" y="71.545763"/>
    </g>
    <g clip-path="url(#p2b2d02026a)">
     <use style="fill:#aedea7;stroke:#000000;stroke-width:1.3;" x="180.61587" xlink:href="#C0_0_5d70943636" y="71.545763"/>
    </g>
    <g clip-path="url(#p2b2d02026a)">
     <use style="fill:#dbf1d6;stroke:#000000;stroke-width:1.3;" x="271.463671" xlink:href="#C0_0_5d70943636" y="71.545763"/>
    </g>
    <g clip-path="url(#p2b2d02026a)">
     <use style="fill:#f7fcf5;stroke:#000000;stroke-width:1.3;" x="514.542112" xlink:href="#C0_0_5d70943636" y="71.545763"/>
    </g>
    <g clip-path="url(#p2b2d02026a)">
     <use style="fill:#00441b;stroke:#000000;stroke-width:1.3;" x="586.647912" xlink:href="#C0_0_5d70943636" y="71.545763"/>
    </g>
    <g clip-path="url(#p2b2d02026a)">
     <use style="fill:#0b7734;stroke:#000000;stroke-width:1.3;" x="718.945587" xlink:href="#C0_0_5d70943636" y="71.545763"/>
    </g>
    <g clip-path="url(#p2b2d02026a)">
     <use style="fill:#37a055;stroke:#000000;stroke-width:1.3;" x="779.579002" xlink:href="#C0_0_5d70943636" y="71.545763"/>
    </g>
    <g clip-path="url(#p2b2d02026a)">
     <use style="fill:#75c477;stroke:#000000;stroke-width:1.3;" x="890.827472" xlink:href="#C0_0_5d70943636" y="71.545763"/>
    </g>
    <g clip-path="url(#p2b2d02026a)">
     <use style="fill:#aedea7;stroke:#000000;stroke-width:1.3;" x="989.938489" xlink:href="#C0_0_5d70943636" y="71.545763"/>
    </g>
    <g clip-path="url(#p2b2d02026a)">
     <use style="fill:#dbf1d6;stroke:#000000;stroke-width:1.3;" x="1035.36211" xlink:href="#C0_0_5d70943636" y="71.545763"/>
    </g>
    <g clip-path="url(#p2b2d02026a)">
     <use style="fill:#f7fcf5;stroke:#000000;stroke-width:1.3;" x="1156.900582" xlink:href="#C0_0_5d70943636" y="71.545763"/>
    </g>
    <g clip-path="url(#p2b2d02026a)">
     <use style="fill:#00441b;stroke:#000000;stroke-width:1.3;" x="1192.95326" xlink:href="#C0_0_5d70943636" y="71.545763"/>
    </g>
    <g clip-path="url(#p2b2d02026a)">
     <use style="fill:#0b7734;stroke:#000000;stroke-width:1.3;" x="1259.10169" xlink:href="#C0_0_5d70943636" y="71.545763"/>
    </g>
    <g clip-path="url(#p2b2d02026a)">
     <use style="fill:#f7fcf5;stroke:#000000;stroke-width:1.3;" x="84.365928" xlink:href="#C0_0_5d70943636" y="54.189831"/>
    </g>
    <g clip-path="url(#p2b2d02026a)">
     <use style="fill:#00441b;stroke:#000000;stroke-width:1.3;" x="180.61587" xlink:href="#C0_0_5d70943636" y="54.189831"/>
    </g>
    <g clip-path="url(#p2b2d02026a)">
     <use style="fill:#0b7734;stroke:#000000;stroke-width:1.3;" x="357.212533" xlink:href="#C0_0_5d70943636" y="54.189831"/>
    </g>
    <g clip-path="url(#p2b2d02026a)">
     <use style="fill:#37a055;stroke:#000000;stroke-width:1.3;" x="438.148639" xlink:href="#C0_0_5d70943636" y="54.189831"/>
    </g>
    <g clip-path="url(#p2b2d02026a)">
     <use style="fill:#75c477;stroke:#000000;stroke-width:1.3;" x="586.647912" xlink:href="#C0_0_5d70943636" y="54.189831"/>
    </g>
    <g clip-path="url(#p2b2d02026a)">
     <use style="fill:#aedea7;stroke:#000000;stroke-width:1.3;" x="718.945587" xlink:href="#C0_0_5d70943636" y="54.189831"/>
    </g>
    <g clip-path="url(#p2b2d02026a)">
     <use style="fill:#dbf1d6;stroke:#000000;stroke-width:1.3;" x="779.579002" xlink:href="#C0_0_5d70943636" y="54.189831"/>
    </g>
    <g clip-path="url(#p2b2d02026a)">
     <use style="fill:#f7fcf5;stroke:#000000;stroke-width:1.3;" x="941.813815" xlink:href="#C0_0_5d70943636" y="54.189831"/>
    </g>
    <g clip-path="url(#p2b2d02026a)">
     <use style="fill:#00441b;stroke:#000000;stroke-width:1.3;" x="989.938489" xlink:href="#C0_0_5d70943636" y="54.189831"/>
    </g>
    <g clip-path="url(#p2b2d02026a)">
     <use style="fill:#0b7734;stroke:#000000;stroke-width:1.3;" x="1078.236277" xlink:href="#C0_0_5d70943636" y="54.189831"/>
    </g>
    <g clip-path="url(#p2b2d02026a)">
     <use style="fill:#37a055;stroke:#000000;stroke-width:1.3;" x="1118.704081" xlink:href="#C0_0_5d70943636" y="54.189831"/>
    </g>
    <g clip-path="url(#p2b2d02026a)">
     <use style="fill:#75c477;stroke:#000000;stroke-width:1.3;" x="1192.95326" xlink:href="#C0_0_5d70943636" y="54.189831"/>
    </g>
    <g clip-path="url(#p2b2d02026a)">
     <use style="fill:#aedea7;stroke:#000000;stroke-width:1.3;" x="1259.10169" xlink:href="#C0_0_5d70943636" y="54.189831"/>
    </g>
    <g clip-path="url(#p2b2d02026a)">
     <use style="fill:#0b7734;stroke:#000000;stroke-width:1.3;" x="36.951903" xlink:href="#C0_0_5d70943636" y="36.833898"/>
    </g>
    <g clip-path="url(#p2b2d02026a)">
     <use style="fill:#37a055;stroke:#000000;stroke-width:1.3;" x="84.365928" xlink:href="#C0_0_5d70943636" y="36.833898"/>
    </g>
    <g clip-path="url(#p2b2d02026a)">
     <use style="fill:#75c477;stroke:#000000;stroke-width:1.3;" x="271.463671" xlink:href="#C0_0_5d70943636" y="36.833898"/>
    </g>
    <g clip-path="url(#p2b2d02026a)">
     <use style="fill:#aedea7;stroke:#000000;stroke-width:1.3;" x="438.148639" xlink:href="#C0_0_5d70943636" y="36.833898"/>
    </g>
    <g clip-path="url(#p2b2d02026a)">
     <use style="fill:#dbf1d6;stroke:#000000;stroke-width:1.3;" x="514.542112" xlink:href="#C0_0_5d70943636" y="36.833898"/>
    </g>
    <g clip-path="url(#p2b2d02026a)">
     <use style="fill:#f7fcf5;stroke:#000000;stroke-width:1.3;" x="718.945587" xlink:href="#C0_0_5d70943636" y="36.833898"/>
    </g>
    <g clip-path="url(#p2b2d02026a)">
     <use style="fill:#00441b;stroke:#000000;stroke-width:1.3;" x="779.579002" xlink:href="#C0_0_5d70943636" y="36.833898"/>
    </g>
    <g clip-path="url(#p2b2d02026a)">
     <use style="fill:#0b7734;stroke:#000000;stroke-width:1.3;" x="890.827472" xlink:href="#C0_0_5d70943636" y="36.833898"/>
    </g>
    <g clip-path="url(#p2b2d02026a)">
     <use style="fill:#37a055;stroke:#000000;stroke-width:1.3;" x="941.813815" xlink:href="#C0_0_5d70943636" y="36.833898"/>
    </g>
    <g clip-path="url(#p2b2d02026a)">
     <use style="fill:#75c477;stroke:#000000;stroke-width:1.3;" x="1035.36211" xlink:href="#C0_0_5d70943636" y="36.833898"/>
    </g>
    <g clip-path="url(#p2b2d02026a)">
     <use style="fill:#aedea7;stroke:#000000;stroke-width:1.3;" x="1118.704081" xlink:href="#C0_0_5d70943636" y="36.833898"/>
    </g>
    <g clip-path="url(#p2b2d02026a)">
     <use style="fill:#dbf1d6;stroke:#000000;stroke-width:1.3;" x="1156.900582" xlink:href="#C0_0_5d70943636" y="36.833898"/>
    </g>
    <g clip-path="url(#p2b2d02026a)">
     <use style="fill:#f7fcf5;stroke:#000000;stroke-width:1.3;" x="1259.10169" xlink:href="#C0_0_5d70943636" y="36.833898"/>
    </g>
    <g clip-path="url(#p2b2d02026a)">
     <use style="fill:#aedea7;stroke:#000000;stroke-width:1.3;" x="36.951903" xlink:href="#C0_0_5d70943636" y="19.477966"/>
    </g>
    <g clip-path="url(#p2b2d02026a)">
     <use style="fill:#dbf1d6;stroke:#000000;stroke-width:1.3;" x="84.365928" xlink:href="#C0_0_5d70943636" y="19.477966"/>
    </g>
    <g clip-path="url(#p2b2d02026a)">
     <use style="fill:#f7fcf5;stroke:#000000;stroke-width:1.3;" x="357.212533" xlink:href="#C0_0_5d70943636" y="19.477966"/>
    </g>
    <g clip-path="url(#p2b2d02026a)">
     <use style="fill:#00441b;stroke:#000000;stroke-width:1.3;" x="438.148639" xlink:href="#C0_0_5d70943636" y="19.477966"/>
    </g>
    <g clip-path="url(#p2b2d02026a)">
     <use style="fill:#0b7734;stroke:#000000;stroke-width:1.3;" x="586.647912" xlink:href="#C0_0_5d70943636" y="19.477966"/>
    </g>
    <g clip-path="url(#p2b2d02026a)">
     <use style="fill:#37a055;stroke:#000000;stroke-width:1.3;" x="654.706689" xlink:href="#C0_0_5d70943636" y="19.477966"/>
    </g>
    <g clip-path="url(#p2b2d02026a)">
     <use style="fill:#75c477;stroke:#000000;stroke-width:1.3;" x="779.579002" xlink:href="#C0_0_5d70943636" y="19.477966"/>
    </g>
    <g clip-path="url(#p2b2d02026a)">
     <use style="fill:#aedea7;stroke:#000000;stroke-width:1.3;" x="890.827472" xlink:href="#C0_0_5d70943636" y="19.477966"/>
    </g>
    <g clip-path="url(#p2b2d02026a)">
     <use style="fill:#dbf1d6;stroke:#000000;stroke-width:1.3;" x="941.813815" xlink:href="#C0_0_5d70943636" y="19.477966"/>
    </g>
    <g clip-path="url(#p2b2d02026a)">
     <use style="fill:#f7fcf5;stroke:#000000;stroke-width:1.3;" x="1078.236277" xlink:href="#C0_0_5d70943636" y="19.477966"/>
    </g>
    <g clip-path="url(#p2b2d02026a)">
     <use style="fill:#00441b;stroke:#000000;stroke-width:1.3;" x="1118.704081" xlink:href="#C0_0_5d70943636" y="19.477966"/>
    </g>
    <g clip-path="url(#p2b2d02026a)">
     <use style="fill:#0b7734;stroke:#000000;stroke-width:1.3;" x="1192.95326" xlink:href="#C0_0_5d70943636" y="19.477966"/>
    </g>
    <g clip-path="url(#p2b2d02026a)">
     <use style="fill:#37a055;stroke:#000000;stroke-width:1.3;" x="1226.982439" xlink:href="#C0_0_5d70943636" y="19.477966"/>
    </g>
   </g>
  </g>
 </g>
 <defs>
  <clipPath id="p2b2d02026a">
   <rect height="102.4" width="1256.65" x="28.55" y="10.8"/>
  </clipPath>
 </defs>
</svg>
